# xmcd
#
# Track frame offsets:
#	150
#	14958
#	34553
#	47518
#	63953
#	88048
#	112103
#	130103
#	152293
#	163580
#
# Disc length: 2345 seconds
#
# Revision: 2
# Processed by: cddbd v1.5.1PL2 Copyright (c) Steve Scherf et al.
# Submitted via: CDmax 2.0
#
DISCID=7809270a
DTITLE=Various Artist - Austin Buffet
DYEAR=1900
DGENRE=Country
TTITLE0=Feelin' Good Again
TTITLE1=New Life In Old Mexico
TTITLE2=Ain't Leavin Your Love
TTITLE3=To Live's To Fly
TTITLE4=Ghosts In The Graveyard
TTITLE5=Birmingham Road
TTITLE6=Raining On Sunday
TTITLE7=Godspeed (Sweet Dreams)
TTITLE8=Out Of Habit
TTITLE9=Seven Nights To Rock
EXTD=
EXTT0=
EXTT1=
EXTT2=
EXTT3=
EXTT4=
EXTT5=
EXTT6=
EXTT7=
EXTT8=
EXTT9=
PLAYORDER=
